<svg xmlns="http://www.w3.org/2000/svg" viewBox="-4 -4 108 108">
  <!-- Black circle background -->
  <circle cx="50" cy="50" r="50" fill="#000"/>
  <!-- Blue border ring -->
  <circle cx="50" cy="50" r="50" fill="none" stroke="#1a6bbf" stroke-width="6"/>
  <!-- Knots logo, scaled and centered -->
  <g transform="translate(50,50) scale(0.23) translate(-183.5,-161.855)">
    <path fill="#1a6bbf" d="M.44,163.08c21.21,10.31,43.86,13.7,66.91,6.72,11.09-3.36,21.37-8.44,30.62-15.37,11.55-8.66,20.37-19.87,26.53-32.87,9.03-19.06,11.16-40.51,6.02-60.93-6.84-27.14-25.65-49.07-51.86-59.98,9.25-1.3,18.36-.56,27.45,1.46,20.12,4.48,38.4,14.98,52.45,30.04,12.32,23.21,20.44,29.22,24.51,47.23,6.8-24.46,19.39-43.79,40.09-58.74,17.04-12.31,37.25-19.3,58.69-19.25-18.22,9.8-32.49,23.17-41.46,41.78-4.34,9-7.17,18.29-8.7,28.2-2.79,18.01.32,36.04,8.66,52.2,8.12,15.74,19.68,28.62,35.41,37.03,11.63,6.22,24.23,9.9,37.46,10.93,19.35,1.51,37.16-3.82,53.92-13.71-13.13,22.42-34.29,37.34-58.89,44.57-18.8,5.53-37.48,4.98-56.7-.33,31.7,37.23,36.16,77.36,14.66,121.11-.18.63-.58.78-.54.07.89-25-6.2-47.59-23.01-65.93-19.95-21.77-44.67-31.37-74.23-28.58-19.6,1.85-37.61,10.18-51.88,23.65l-4.43,4.42c-16.64,16.6-25.67,41.19-24.96,65.36-3.66-5.6-6.21-11.61-7.99-17.89-10.2-36.1-.47-74.58,26.1-101.65-43.53,8.01-77.82-4.83-104.97-39.11l-.26-.32-.02-.44.44.32ZM207.7,175.59c-12.98-13.97-21.39-30.21-25.66-48.96-4.94,18.18-13.88,34.11-27.26,47.79,18.01-3.97,35.37-3.67,52.92,1.17Z"/>
  </g>
</svg>
